<?xml version="1.0" standalone="no"?><!DOCTYPE svg PUBLIC "-//W3C//DTD SVG 1.1//EN" "http://www.w3.org/Graphics/SVG/1.1/DTD/svg11.dtd"><svg t="1696514459273" class="icon" viewBox="0 0 1024 1024" version="1.1" xmlns="http://www.w3.org/2000/svg" p-id="2227" xmlns:xlink="http://www.w3.org/1999/xlink" width="200" height="200"><path d="M512 0c282.772 0 512 229.228 512 512S794.772 1024 512 1024 0 794.772 0 512 229.228 0 512 0z" fill="#FFC36E" p-id="2228"></path><path d="M17.586 645.392h988.824C1017.856 602.858 1024 558.15 1024 512 1024 229.228 794.772 0 512 0S0 229.228 0 512c0 46.15 6.144 90.858 17.586 133.392z" fill="#FFB54C" p-id="2229"></path><path d="M370.16 383.032c0 37.874-30.704 68.578-68.572 68.578-37.874 0-68.576-30.704-68.576-68.578 0-37.872 30.702-68.572 68.576-68.572 37.868 0 68.572 30.7 68.572 68.572z" fill="#FFFFFF" p-id="2230"></path><path d="M570.97 3.398c-3.65 1.672-7.22 3.844-10.336 6.662-0.404 0.362 20.758 8.172 31.826 4.278 0 0-6.094 15.2-4.376 33.764 0 0 16.776-14.614 23.102-22.934 0 0 0.386 2.718 1.278 6.676-0.42 1.484-0.768 3-1.002 4.554-0.014 0.102 0.738-0.082 2-0.514l0.138 0.514c-0.954 0.16-1.906 0.362-2.854 0.628-0.156 0.046 1.664 2.076 4.444 4.554a68.394 68.394 0 0 0 2.886 7.248s0.762-1.26 1.838-3.432c3.496 2.534 7.468 4.77 10.982 5.196 0 0-9.222 8.264-14.274 21.426 0 0 16.268-4.288 23.342-7.806 0 0-3.102 9.346-3.254 18.344 0 0 3.428-2.194 7.496-6.024 0.44 5.626 1.71 18.008 4.72 24.492 0 0-17.968-10.44-30.076-12.658 0 0 9.794 19.224 19.57 24.784 0 0-12.424 4.178-16.874 14.728 0 0 17.208 6.184 29.81-2.414 0 0-7.536 9.642 1.962 24.518 0 0 17.582-10.248 21.564-33.32a382.146 382.146 0 0 0 20.546 5.626c-0.014 0.37-0.032 0.738-0.036 1.094 0 0 0.44-0.284 1.174-0.806 1.378 0.334 2.762 0.642 4.146 0.962 3.24 3.89 7.792 8.672 12.474 11.324 0 0-16.694-5.602-31.802-0.37 0 0 15.104 11.324 24.226 13.73 0 0-19.508 7.156-28.948 15.05 0 0 10.096 2.276 19.794 2.364 2.286 3.628 5.126 7.462 8.27 10.092 0 0-14.088-7.76-29.142-6.322-3.394-3.954-12.428-12.054-31.248-15.182 0 0 6.918 12.236 13.562 18.458 0 0-17.414 0.454-27.576 10.534-0.288 0.284 15.966 5.452 24.194 2.124 0 0-4.072 11.692-2.13 25.66 0 0 7.412-7.088 12.8-13.294 1.254 0.494 3.216 1.238 5.594 2.04 0.976 3.248 2.382 7.174 4.288 10.756 0 0 1.828-3.376 3.492-8.448 5.506 1.388 11.502 2.318 16.03 1.504 0 0-6.85 11.168-3.492 22.122 0 0 17.166-6.296 21.316-20.978 0 0 0.404 12.232 17.234 17.556 0 0 6.912-19.14-4.832-39.404a367.192 367.192 0 0 0 10.146-4.48c-0.64 4.498-0.98 10.308-0.11 16.584 0 0 12.164-11.628 16.654-18.132 0 0 1.81 9.686 6.028 17.638 0 0 2.046-3.78 3.778-9.336 4.642 2.456 16.484 8.402 23.878 9.332 0 0-18.384 9.682-26.69 18.764 0 0 21.48 1.912 31.386-3.422 0 0-1.1 4.64-0.536 10.382-6.534 0.738-16.012 3.166-27.274 10.074-4.852-2.534-11.242-4.88-19.542-6.264 0 0 6.922 12.238 13.566 18.458 0 0-17.408 0.458-27.58 10.532-0.284 0.288 15.97 5.452 24.194 2.126 0 0-4.068 11.696-2.13 25.658 0 0 12.168-11.626 16.656-18.128 0 0 0.514 2.718 1.614 6.436a37.552 37.552 0 0 0-0.454 7.35c0.004 0.122 0.984-0.348 2.538-1.264a51.2 51.2 0 0 0 2.332 5.112s1.988-3.67 3.706-9.102c5.8-4.21 12.804-10.382 15.068-16.474 0 0 7.788 14.398 23.168 24.95 0 0-0.514-22.242-2.858-32.424 0 0 6.766 4.186 15.218 7.434-0.784 0.376-1.534 0.762-2.244 1.164 0 0 19.842 8.466 30.91 6.464 0 0-6.844 11.168-3.49 22.118 0 0 17.164-6.296 21.316-20.972 0 0 0.408 12.226 17.23 17.55 0 0 6.918-19.136-4.828-39.394a391.34 391.34 0 0 0 28.436-13.436c4.738-2.478 9.558-4.99 14.274-7.664-1.406 4.092-5.296 17.088-3.876 32.408 0 0 10.426-9.09 17.94-17.01a515.552 515.552 0 0 0-22.164-31.798 64.416 64.416 0 0 0-9.062 2.538 50.312 50.312 0 0 0-14.148-21.358c1.598-1.392 3.184-2.798 4.76-4.214-1.366-1.608-2.718-3.226-4.1-4.816-1.814 1.746-3.638 3.482-5.47 5.204a57.44 57.44 0 0 0-3.824-2.51s-13.69-13.07-29.796-9.782c-4-6.218-9.648-13.002-17.052-17.464 1.2-1.264 2.4-2.538 3.586-3.83 6.548-0.2 14.248-1.068 19.128-3.698 0 0-3.046 12.744 3.526 22.118 0 0 5.774-4.55 9.85-11.768a514.836 514.836 0 0 0-26.754-25.522 85.612 85.612 0 0 1-3.766 5.118c-1.288 1.622-2.62 3.22-3.958 4.81-3.844 2.72-7.59 5.722-10.284 8.662 0 0 0.944 0.088 2.514 0.174-0.228 0.238-0.452 0.486-0.678 0.734a31.868 31.868 0 0 0-4.6-1.204s-11.128-2.446-27.986 5.25c2.488-7.656 4.55-19.048-0.458-28.606 2.304 3.592 6.564 7.664 14.55 10.188 0 0 3.152-8.728 1.576-20.638a181.654 181.654 0 0 0 3.908-8.534 515.162 515.162 0 0 0-37.942-26.378c0.816 1.246 1.69 2.5 2.62 3.7-0.412 0.852-0.874 1.71-1.37 2.524-3.852-1.458-9.17-3-15.05-3.532a28.706 28.706 0 0 0-4.026-3.344c1.264-2.532 2.574-5.24 3.774-7.888a517.96 517.96 0 0 0-17.428-9.766c0.252 4.81 1.242 13.976 4.958 23.988a191.554 191.554 0 0 1-4.358-1.834c-0.302-4.696-1.86-12.488-7.756-21.962a29.84 29.84 0 0 0 4.136-1.788 502.258 502.258 0 0 0-18.682-9.36c-0.336 1.04-0.64 2.098-0.908 3.166-3.414 3.106-6.56 6.794-8.842 11.106-0.156 0.292 8.356 0.448 17.034-1.218-0.478 4.164-0.788 8.938-0.408 12.854-0.114-0.056-0.228-0.11-0.342-0.174-1.508-1.182-8.214-6.176-16.694-8.626a557.32 557.32 0 0 1-14.604-8.21c0.476-1.406 0.92-2.854 1.31-4.378 0 0 2.918-5.722 3.82-13.364a511.068 511.068 0 0 0-30.48-11.762l-0.05-0.014-1.054-0.262-0.022-0.118a470.662 470.662 0 0 0-6.992-2.378c0.912 0.582 1.856 1.15 2.818 1.704-2.908-0.416-6.01-0.568-9.136-0.238-2.294-1.7-4.626-3.276-6.876-4.546l0.064-1.068a509.5 509.5 0 0 0-89.082-18.376z m309.22 152.858c0.128 1.384 0.39 2.79 0.82 4.192 0 0 0.874-0.32 2.272-0.99l-3.092-3.202z m-53.368-48.034a503.91 503.91 0 0 1 19.534 16.03 159.38 159.38 0 0 1-9.868-4.788c-5.246 5.35-9.896 9.712-9.896 9.712-1.016-7.864-0.584-15.158 0.23-20.954zM623.796 36.278c0.646-1.81 1.264-3.766 1.822-5.824 4.324-2.372 8.674-5.342 11.532-8.676 0.22 4.686 0.874 13.336 2.83 19.374 0 0.002-7.22-3.742-16.184-4.874z m43.37 159.072a45 45 0 0 0 1.872-2.478s0.106 0.576 0.33 1.544c-0.748 0.3-1.486 0.612-2.202 0.934z m13.878-4.738c0.486-4.988 0.132-10.336-1.92-15.31 4.49 4.316 10.826 9.89 15.746 12.21a168.48 168.48 0 0 0-13.826 3.1z m96.882 56.06a25.114 25.114 0 0 0-2.47-5.274s-0.28-0.48-0.908-1.288c2.836 0.16 5.622 0.192 8.142-0.01 0.002 0.002-2.138 2.476-4.764 6.572z m23.558-124.526c-0.27-0.416-1.06-1.57-2.53-3.116 0.326-0.802 0.618-1.62 0.862-2.478 0 0 0.092 2.428 1.668 5.594z m-35.77-27.288c0.49 0.898 1.008 1.768 1.566 2.566 0 0-1.446-1.384-3.936-3.27 0.784 0.246 1.572 0.48 2.37 0.704z m-11.018 11.386s-5.562-0.518-12.57-0.586c2.248-1.906 4.416-4.1 6.272-6.592 2.07 2.83 4.246 5.436 6.298 7.178z m-57.604-31.046c0.398 2.386 0.908 4.732 1.566 6.784 0 0-2.254-1.168-5.79-2.396a50.144 50.144 0 0 0 4.224-4.388z m-37.568-46.84c1.938 6.896 5.538 17.368 10.618 22.458 0 0-6.596 0.386-12.97 3.82 0.252-1.632 0.348-3.312 0.258-5.03 0 0-0.018-0.98-0.372-2.698 0.514-3.208 1.716-11.004 2.466-18.55z m6.984 45.606s-4.238 14.418-2.462 24.34c0 0-5.786-14.876-18.146-23.442 3.084-3.144 6.3-7.128 8.554-11.746 5.51 2.748 15.302 6.296 24.89 3.016 0 0-4.576 3.402-5.828 10.93-1.178 0.146-2.354 0.362-3.518 0.664a25.874 25.874 0 0 0-3.49-3.762z m5.386 6.616c0.404 0.39 0.838 0.796 1.316 1.238 0.018 0.518 0.078 1.07 0.134 1.608a30.742 30.742 0 0 0-1.45-2.846z m3.67 29.974c0.088-1.49 0.134-3.004 0.102-4.576 0 0 1.526-7.434-0.23-15.906 0.994-0.32 2.95-1.022 5.466-2.264 2.872 1.828 5.92 3.27 8.678 3.61 0 0-8.228 7.376-13.4 19.29l-0.616-0.154z m20.578 5.022a534.314 534.314 0 0 1-16.448-3.952c5.338-1.526 14.202-4.228 18.948-6.584 0.002-0.002-1.532 4.644-2.5 10.536z m7.12-49.478c0.38-0.714 0.746-1.446 1.094-2.194 2.896 1.826 5.818 3.614 8.76 5.364 3.156 4.554 8.824 11.444 14.306 13.346 0 0-5.396 3.088-11.292 9.07 0-0.416 0.004-0.834-0.018-1.254 0 0-0.21-11.146-12.85-24.332z m0.6 51.112l-0.674-0.146c4.26-4.068 9.132-9.9 11.498-16.868 5.602-0.394 13.942-1.14 18.72-2.35 0 0-2.062 3.5-4.092 8.324-2.584 0.27-5.048 0.66-7.226 1.224 0 0 2.112 1.658 5.338 3.848-0.408 1.26-0.784 2.548-1.086 3.844 0 0 1.644-0.614 4.126-1.846 4.884 3.092 11.128 6.528 16.622 7.88-0.64 0.494-1.296 0.98-1.938 1.48-3.918 0.224-7.916-0.014-11.756-0.444-9.874-1.102-19.802-2.994-29.532-4.946z m31.598 12.64c-1.828 1.338-3.66 2.652-5.498 3.972a55.372 55.372 0 0 0-3.454-2.996s-0.788-0.986-2.232-2.422c3.724 0.622 7.458 1.122 11.184 1.446z m-14.038 47.88c-0.416-0.56-0.838-1.118-1.288-1.676a31.982 31.982 0 0 0 3.678-6.122c2.574 0.366 5.31 0.572 7.834 0.426 0.6 0.504 1.246 1.008 1.97 1.49a615.24 615.24 0 0 1-12.194 5.882z m14.422-37.484a55.6 55.6 0 0 0-1.618-1.992 393.04 393.04 0 0 0 8.898-6.048c-1.238 2.904-2.098 6.262-1.98 9.864-1.64-0.652-3.402-1.26-5.3-1.824z m24.834 17.028a23.946 23.946 0 0 0-0.958-1.686s-4.596-7.954-18.486-13.482c0.97-0.096 10.33-1.192 18.242-6.666 2.52 0.622 5.75 1.26 9.02 1.544 1.324 3.116 3.752 6.63 8.09 9.974-0.01 0.092-0.018 0.174-0.032 0.27-1.1 0.796-2.214 1.57-3.33 2.31a243.926 243.926 0 0 1-12.546 7.736z m10.924 7.912s9.964 11.256 19.318 15.012c0 0-15.27-2.936-28.958 2.68 1.47-5.452 2.428-12.164 1.122-18.668 4.48-2.428 8.91-4.98 13.164-7.732 0.072 1.682 0.218 3.422 0.466 5.204 0 0 12.168-11.628 16.656-18.128 0 0 1.086 5.782 3.518 12.072a96.608 96.608 0 0 0-12.296 8.286s18.118 4.15 30.116 3.202c0 0-2.876 3.33-6.052 8.65l-1.246 1.178a58.998 58.998 0 0 0-3.82-2.516s-14.952-14.288-31.988-9.24z m63.56 63.176s12.818 13.858 21.352 17.876c0 0-12.846 2.208-23.51 6.14-3.88-8.484-13.712-26.04-30.36-31.186 2.652-4.348 4.788-9.766 4.55-15.824 0 0 4.166 11.514 21.82 11.362 0 0 0.44-14.124-9.502-27.878 2.012-2.308 3.652-4.732 4.55-7.146 0 0 7.788 14.398 23.158 24.95 0 0-0.192-8.48-0.894-17.368 4.1 2.19 16.75 8.686 24.506 9.662 0 0-18.384 9.686-26.696 18.764 0 0 4.522 0.398 10.372 0.32 2.35 4.564 6.716 12.108 11.87 16.42-0.002 0-15.412-8.516-31.216-6.092z m31.334-44.43c-5.814 0.028-13.326 0.862-20.278 4.04-0.43-5.08-1.026-10.162-1.85-13.744 0 0 10.772 6.676 22.128 9.704z m-3.354-8.382c3.688 3.34 8.632 7.22 13.42 9.148 0 0-3.958-0.762-9.648-0.77-0.24-0.66-1.48-3.972-3.772-8.378z m1.384 41.808c4.114-0.54 8.062-1.484 11-3.066 0 0-1.26 5.31-0.394 11.586-2.594-2.932-6.144-6.188-10.606-8.52z m44.516 6.056c-8.508 4.626-17.216 8.92-25.97 13.044a65.214 65.214 0 0 0-1.682-2.154c4.05-3.944 11.888-13.088 11.44-24.436 0 0 3.958 10.784 20.29 11.312-1.362 0.744-2.716 1.5-4.078 2.234z m5.602-3.078a27.412 27.412 0 0 0-0.028-0.764c0.372 0.06 0.742 0.11 1.122 0.164-0.364 0.2-0.726 0.402-1.094 0.6z" fill="#ED6C00" p-id="2231"></path><path d="M124.116 544.266l4.55-10.858s-8.494 2.79-15.17 2.79H73.158c-5.466 0-14.866-1.576-14.866-1.576l3.944 9.644h10.344l-0.092 4.036h-9.712v4.03h9.676l-1.032 47.76 4.774 0.878 0.444-48.638h34.28l0.44 48.442 4.778-0.486-1.03-47.956h9.52v-4.03h-9.558l-0.096-4.036h9.144z m-47.422 0h14.678l-0.27 4.036h-14.45l0.042-4.036z m34.214 4.036h-15.05l-0.198-4.036h15.206l0.042 4.036z" fill="#FFFFFF" p-id="2232"></path><path d="M1019.66 578.826a148.848 148.848 0 0 0-14.312-0.326c-10.752 0.308-21.77 3.422-32.12 6.158-4.944 1.306-13.84 4.584-17.568-0.496-2.066-2.818-4.33-4.41-7.528-5.794-3.784-1.64-8.774-1.078-12.76-1.19-1.932-0.056-3.476-1.448-5.368-1.48-3.02-0.046-6.038-0.102-9.054-0.12-4.476-0.036-8.588 0.114-12.942 1.234-4.902 1.254-9.038 2.762-14.206 2.776-12.296 0.05-24.478 0.796-36.71-0.922-4.966-0.7-9.844-0.966-14.834-1.392-2.868-0.242-5.29-1.168-7.834-2.382-1.98-0.948-4.98-1.03-6.794-2.168-0.714-0.444-1.686-0.636-2.516-0.682a8.96 8.96 0 0 1-1.742-0.258c0.33-0.66 0.196-1.54-0.692-1.726-3.07-0.656-5.35-2.748-8.416-3.422-2.186-0.486-4.572-0.078-6.738 0.252-7.396 1.14-14.716 5.978-22.096 6.226-1.586 0.054-3.362-2.25-4.856-2.748-2.29-0.762-4.502-1.022-6.916-1.072-7.3-0.152-14.408 2.656-21.326-0.834-5.622-2.832-9.634-5.608-15.764-7.468-7.67-2.322-13.624-4.508-21.752-4.032-4.76 0.28-9.052 0.908-13.574-0.974-4.046-1.678-7.834-3.932-11.696-5.978-6.606-3.514-8.158-13.3-11.522-19.566-2.556-4.774-5.708-9.386-10.426-12.214-2.616-1.566-5.576-2.686-7.806-4.816-2.244-2.13-3.51-4.49-6.052-6.446-5.75-4.434-10.56-9.968-16.19-14.55-6.698-5.436-16.2-7.608-23.676-11.924-6.262-3.62-13.55-9.804-15.58-16.914-1.69-5.924-3.912-10.72-8.448-15.076-2.14-2.052-4.742-3.596-6.928-5.652-1.452-1.37-3.852-1.744-4.828-3.604a5.304 5.304 0 0 0-0.544-2.278 2.702 2.702 0 0 0-0.128-0.292 18.026 18.026 0 0 0-0.394-1.204c-0.04-0.084-0.078-0.166-0.124-0.248-0.266-0.998-0.622-1.644-1.456-2.292-0.418-0.32-0.954-0.444-1.494-0.43a1.64 1.64 0 0 0-1.186 0.082c-5.928 2.594-12.1 1.114-18.334 1.384-6.772 0.298-12.796 2.744-19.768 2.424-0.764-0.032-1.594 0.416-1.814 1.194-2.204 7.798-9.474 11.628-12.37 18.734-1.384 3.394-2.31 7.938-5.254 10.348-3.364 2.754-6.95 5.09-10.44 7.674-2.782 2.062-4.65 5.232-6.436 8.108-2.818 4.54-7.166 7.184-11.202 10.564-4.142 3.464-8.452 6.656-13.074 9.456-2.538 1.536-7.326 7.086-9.812 7.734-1.772 0.462-1.892 2.58-0.842 3.472-5.526 2.73-10.932 5.85-15.76 9.19-3.642 2.516-6.684 5.386-9.518 8.768-3.776 4.508-1.93 10.702-7.5 14.358-8.036 5.272-18.304 6.904-27.022 10.824-2.818 1.264-12.006 7.61-19.654 10.624-2.634-0.82-14.884 2.91-16.57 3.318-6.574 1.576-13.024 3.518-19.64 4.948-9.034 1.952-15.642-1.442-21.418-8.072-6.62-7.586-12.218-14.486-22.398-16.896a36.934 36.934 0 0 0-14.944-0.444c-7.834 1.388-14.66 2.666-22.718 1.928-5.354-0.49-9.254-3.12-14.824-2.904-4.75 0.188-9.452 1.868-13.436 4.374-4.028 2.53-6.57 6.532-9.382 10.216-4.476 5.86-10.812 9.732-17.546 12.412-3.302 1.314-6.734 2.294-10.166 3.206-3.394 0.902-6.602 2.336-9.992 3.106-2.868 0.65-6.262-0.38-8.976 0.462-2.752 0.856-5.254 2.006-7.83 3.306-6.29 3.166-18.234 3.506-24.88 1.16 0.032-0.33-0.174-0.718-0.554-0.774a32.314 32.314 0 0 1-2.51-0.476c-3.982-1.778-7.532-3.788-12.264-3.774a0.846 0.846 0 0 0-0.7 0.334c-0.546-0.088-1.094-0.178-1.654-0.234-7.724-0.774-16.402 1.094-24.016 2.296-8.874 1.406-16.602 5.442-25.654 5.47-7.214 0.018-16.928 1.984-23.584-0.65-2.268-0.898-4.64-2.832-7.17-3.096-3.386-0.354-6.496 0.458-9.822 1.04-3.856 0.668-8.346 0.146-12.268 0.16-5.296 0.014-10.238 0.11-15.402-1.398-2.768-0.806-5.572-1.076-8.384-1.072a509.628 509.628 0 0 0 10.78 54.26c8.856-0.05 16.63-0.206 20.538-0.408 11.2-0.568 22.424-0.06 33.608 0.646 6.664 0.416 13.346 0.632 20.034 0.746 8.016 1.782 14.894 3.226 23.364 3.252 10.468 0.042 21.056 0.522 31.496-0.274 6.698-0.51 13.752-1.562 20.422-3.244 11.448 0.022 22.89 0.394 34.186 1.938 9.762 1.338 176.868 3.922 199.522 4.046 5.196 0.028 53.028 0.386 64.362-0.764 21.6-2.194 307.964-2.662 330.116-3.202 22.892-0.564 45.756-0.756 68.654-0.724 21.326 0.028 42.606 1.466 63.954 1.494 9.886 0.014 20.438-1.008 30.2 0.426 5.64 0.824 28.322 1.452 49.94 1.732a509.886 509.886 0 0 0 13.222-66.484z" fill="#BD360C" p-id="2233"></path><path d="M124.116 721.078l4.55 10.858s-8.494-2.79-15.17-2.79H73.158c-5.466 0-14.866 1.582-14.866 1.582l3.944-9.648h10.344l-0.092-4.036h-9.712v-4.032h9.676l-1.032-47.756 4.774-0.88 0.444 48.634h34.28l0.44-48.438 4.778 0.486-1.03 47.952h9.52v4.032h-9.558l-0.096 4.036h9.144z m-47.422 0h14.678l-0.27-4.036h-14.45l0.042 4.036z m34.214-4.036h-15.05l-0.198 4.036h15.206l0.042-4.036z" fill="#FFC36E" p-id="2234"></path><path d="M993.794 685.592c-6.962-1.224-13.904-3.144-20.566-4.906-4.944-1.306-13.84-4.586-17.568 0.494-2.066 2.818-4.33 4.412-7.528 5.796-3.784 1.64-8.774 1.076-12.76 1.192-1.932 0.054-3.476 1.452-5.368 1.48-3.02 0.05-6.038 0.1-9.054 0.124-4.476 0.032-8.588-0.12-12.942-1.234-4.902-1.256-9.038-2.762-14.206-2.78-12.296-0.046-24.478-0.798-36.71 0.924-4.966 0.696-9.844 0.962-14.834 1.388-2.868 0.246-5.29 1.168-7.834 2.382-1.98 0.948-4.98 1.032-6.794 2.168-0.714 0.444-1.686 0.64-2.516 0.688a8.682 8.682 0 0 0-1.742 0.252c0.33 0.664 0.196 1.54-0.692 1.732-3.07 0.65-5.35 2.744-8.416 3.422-2.186 0.48-4.572 0.078-6.738-0.258-7.396-1.14-14.716-5.974-22.096-6.226-1.586-0.056-3.362 2.254-4.856 2.748-2.29 0.76-4.502 1.026-6.916 1.076-7.3 0.146-14.408-2.658-21.326 0.83-5.622 2.836-9.634 5.606-15.764 7.466-7.67 2.322-13.624 4.508-21.752 4.032-4.76-0.274-9.052-0.908-13.574 0.976-4.046 1.682-7.834 3.934-11.696 5.982-6.606 3.51-8.158 13.294-11.522 19.562-2.556 4.774-5.708 9.39-10.426 12.214-2.616 1.566-5.576 2.69-7.806 4.814-2.244 2.13-3.51 4.494-6.052 6.45-5.75 4.434-10.56 9.968-16.19 14.546-6.698 5.442-16.2 7.614-23.676 11.93-6.262 3.614-13.55 9.798-15.58 16.908-1.69 5.928-3.912 10.724-8.448 15.08-2.14 2.054-4.742 3.596-6.928 5.65-1.452 1.37-3.852 1.75-4.828 3.606a5.306 5.306 0 0 1-0.544 2.28c-0.078 0.184-0.118 0.28-0.128 0.294-0.12 0.402-0.248 0.806-0.394 1.204-0.04 0.078-0.078 0.164-0.124 0.248-0.266 0.994-0.622 1.64-1.456 2.286-0.418 0.326-0.954 0.448-1.494 0.432a1.66 1.66 0 0 1-1.186-0.078c-5.928-2.598-12.1-1.114-18.334-1.388-6.772-0.298-12.796-2.744-19.768-2.422-0.764 0.036-1.594-0.416-1.814-1.196-2.204-7.792-9.474-11.622-12.37-18.732-1.384-3.394-2.31-7.934-5.254-10.348-3.364-2.748-6.95-5.09-10.44-7.674-2.782-2.058-4.65-5.226-6.436-8.104-2.818-4.54-7.166-7.186-11.202-10.564-4.142-3.468-8.452-6.662-13.074-9.46-2.538-1.53-7.326-7.082-9.812-7.732-1.772-0.458-1.892-2.574-0.842-3.472-5.526-2.73-10.932-5.85-15.76-9.186-3.642-2.516-6.684-5.388-9.518-8.768-3.776-4.508-1.93-10.706-7.5-14.362-8.036-5.274-18.304-6.904-27.022-10.826-2.818-1.264-12.006-7.606-19.654-10.618-2.634 0.82-14.884-2.914-16.57-3.318-6.574-1.58-13.024-3.522-19.64-4.952-9.034-1.946-15.642 1.448-21.418 8.072-6.62 7.592-12.218 14.486-22.398 16.902a37.04 37.04 0 0 1-14.944 0.444c-7.834-1.392-14.66-2.666-22.718-1.93-5.354 0.486-9.254 3.12-14.824 2.9-4.75-0.184-9.452-1.868-13.436-4.374-4.028-2.528-6.57-6.528-9.382-10.212-4.476-5.864-10.812-9.732-17.546-12.412-3.302-1.318-6.734-2.294-10.166-3.212-3.394-0.902-6.602-2.332-9.992-3.1-2.868-0.65-6.262 0.376-8.976-0.466-2.752-0.858-5.254-2.002-7.83-3.304-6.29-3.17-18.234-3.504-24.88-1.158 0.032 0.324-0.174 0.714-0.554 0.768-0.848 0.124-1.686 0.288-2.51 0.476-3.982 1.778-7.532 3.794-12.264 3.78a0.864 0.864 0 0 1-0.7-0.338c-0.546 0.088-1.094 0.178-1.654 0.238-7.724 0.77-16.402-1.094-24.016-2.298-8.874-1.402-16.602-5.444-25.654-5.466-7.214-0.018-16.928-1.988-23.584 0.65-2.268 0.898-4.64 2.826-7.17 3.092-3.386 0.352-6.496-0.458-9.822-1.036-3.856-0.674-8.346-0.152-12.268-0.16l-1.694-0.004a507.68 507.68 0 0 1-11.312-37.852c8.856-0.05 16.63-0.206 20.538-0.408 11.2-0.568 22.424-0.06 33.608 0.646 6.664 0.416 13.346 0.632 20.034 0.746 8.016 1.782 14.894 3.226 23.364 3.252 10.468 0.042 21.056 0.522 31.496-0.274 6.698-0.51 13.752-1.562 20.422-3.244 11.448 0.022 22.89 0.394 34.186 1.938 9.762 1.338 176.868 3.922 199.522 4.046 5.196 0.028 53.028 0.386 64.362-0.764 21.6-2.194 307.964-2.662 330.116-3.202 22.892-0.564 45.756-0.756 68.654-0.724 21.326 0.028 42.606 1.466 63.954 1.494 9.886 0.014 20.438-1.008 30.2 0.426 5.64 0.824 28.322 1.452 49.94 1.732a509.816 509.816 0 0 1-12.644 40.284z" fill="#DF6641" p-id="2235"></path><path d="M370.16 844.172c0 37.874-30.704 68.576-68.572 68.576-37.874 0-68.576-30.702-68.576-68.576 0-37.868 30.702-68.572 68.576-68.572 37.868 0 68.572 30.704 68.572 68.572z" fill="#FFF7C3" p-id="2236"></path><path d="M511.312 279.13c8.682 0 16.874 1.402 24.124 3.886 7.848-5.224 18.596-8.448 30.456-8.448 20.534 0 37.746 9.662 42.354 22.664 10.262 2.098 18.494 7.366 22.252 14.128a50.376 50.376 0 0 1 3.752-0.134c18.966 0 34.36 10.46 34.36 23.364 0 12.902-15.394 23.36-34.36 23.36-5.914 0-11.476-1.012-16.328-2.798-4.174 9.708-17.362 16.8-32.994 16.8-9.544 0-18.18-2.648-24.404-6.928-6.23 4.28-14.872 6.928-24.422 6.928-9.066 0-17.326-2.396-23.47-6.3-6.28 4.67-15.312 7.602-25.358 7.602-9.406 0-17.922-2.562-24.11-6.726-2.842 0.43-5.8 0.65-8.82 0.65-22.612 0-40.932-12.462-40.932-27.832 0-15.374 18.32-27.836 40.932-27.836 1.228 0 2.456 0.042 3.656 0.12 2.904-18.28 25.664-32.5 53.312-32.5z" fill="#FFFFFF" p-id="2237"></path><path d="M917.064 666.218c27.482 0 49.766 2.176 49.766 4.856 0 2.684-22.284 4.86-49.766 4.86s-49.766-2.176-49.766-4.86c0-2.68 22.282-4.856 49.766-4.856zM824.964 743.796c30.84 0 55.846 1.696 55.846 3.784 0 2.094-25.004 3.79-55.846 3.79s-55.846-1.694-55.846-3.79c0-2.088 25.004-3.784 55.846-3.784zM779.018 827.62c21.78 0 39.436 1.196 39.436 2.676 0 1.474-17.656 2.67-39.436 2.67s-39.436-1.196-39.436-2.67c0-1.48 17.656-2.676 39.436-2.676zM763.478 681.374c35.912 0 65.03 1.58 65.03 3.526s-29.118 3.528-65.03 3.528c-35.916 0-65.034-1.582-65.034-3.528s29.118-3.526 65.034-3.526zM681.236 856.522c31.128 0 56.362 1.356 56.362 3.028s-25.234 3.028-56.362 3.028c-31.13 0-56.364-1.356-56.364-3.028s25.234-3.028 56.364-3.028zM682.982 770.454c37.822 0 68.484 1.834 68.484 4.092 0 2.258-30.662 4.092-68.484 4.092-37.824 0-68.484-1.834-68.484-4.092-0.002-2.258 30.66-4.092 68.484-4.092zM430.138 812.232c64.306 0 116.432 1.814 116.432 4.05s-52.126 4.05-116.432 4.05c-64.312 0-116.436-1.814-116.436-4.05s52.124-4.05 116.436-4.05zM484.87 673.492c59.914 0 108.484 2.714 108.484 6.062s-48.57 6.06-108.484 6.06-108.484-2.712-108.484-6.06 48.57-6.062 108.484-6.062zM326.744 757.308c42.884 0 77.646 3.76 77.646 8.402 0 4.64-34.762 8.402-77.646 8.402-42.886 0-77.648-3.762-77.648-8.402 0-4.642 34.762-8.402 77.648-8.402zM207.594 661.228c49.204 0 89.092 1.296 89.092 2.892 0 1.598-39.888 2.896-89.092 2.896-49.202 0-89.09-1.296-89.09-2.896 0-1.594 39.888-2.892 89.09-2.892zM61.686 755.844c-1.434-2.644-2.826-5.318-4.214-7.984 28.734-0.274 66.924-0.426 82.05-0.426 23.964 0 60.11 1.948 60.11 4.352 0 2.406-37.378 4.352-60.11 4.352-14.262 0.002-50.472-0.1-77.836-0.294zM124.43 846.568a508.994 508.994 0 0 1-11.85-14.27c39.672 0.252 136.53 3.724 136.53 7.256 0 3.652-95.382 6.176-124.68 7.014zM585.382 723.19c31.076 0 56.268 1.622 56.268 3.62s-25.192 3.62-56.268 3.62c-31.074 0-56.266-1.622-56.266-3.62s25.192-3.62 56.266-3.62zM735.68 913.528c38.344 0 71.596 1.9 87.978 4.676a513.994 513.994 0 0 1-12.736 9.488c-18.128 1.85-45.106 3.024-75.242 3.024-54.582 0-98.832-3.848-98.832-8.594 0-4.746 44.25-8.594 98.832-8.594zM466.238 911.278c74.976 0 135.756 3.88 135.756 8.664 0 4.782-60.78 8.662-135.756 8.662s-135.756-3.88-135.756-8.662c0-4.784 60.78-8.664 135.756-8.664z" fill="#FFCE8A" p-id="2238"></path></svg>